<svg id="black" xmlns="http://www.w3.org/2000/svg" width="42.68" height="42.68" viewBox="0 0 42.68 42.68">
  <g id="paypal">
    <path id="Path_25" data-name="Path 25" d="M21.34,42.68A21.34,21.34,0,1,0,0,21.34,21.34,21.34,0,0,0,21.34,42.68Z" fill-rule="evenodd"/>
    <path id="Path_26" data-name="Path 26" d="M36.08,19.591a7.474,7.474,0,0,1-3.4,6.282c-2.188,1.549-5.249,2.337-9.1,2.34H22.72a.781.781,0,0,0-.7.531l-1.046,4.346a2.311,2.311,0,0,1-2.2,1.688h-2.9l-.026.111a.881.881,0,0,0,.918,1.117H19.8A1.541,1.541,0,0,0,21.25,34.89l1.045-4.338a1.535,1.535,0,0,1,1.443-1.109H24.6c3.706,0,6.58-.734,8.646-2.2a6.765,6.765,0,0,0,3.089-5.789A6.1,6.1,0,0,0,36.08,19.591Zm-8.431,3.181A6.23,6.23,0,0,1,24,23.7h-.708a.842.842,0,0,1-.88-1.064l.87-3.615a1.461,1.461,0,0,1,1.38-1.06l.945-.006a4.711,4.711,0,0,1,2.511.545,1.8,1.8,0,0,1,.832,1.66A2.967,2.967,0,0,1,27.649,22.773Zm7.292-5.938a4.481,4.481,0,0,0-1.662-1.753,7.727,7.727,0,0,0-2.63-.955,22.106,22.106,0,0,0-3.577-.28l-6.325,0a1.576,1.576,0,0,0-1.453,1.137L15.03,33.226a.893.893,0,0,0,.918,1.14h3.03a1.546,1.546,0,0,0,1.452-1.14L21.474,28.8a1.541,1.541,0,0,1,1.443-1.131h.866c3.706,0,6.58-.749,8.646-2.242a6.94,6.94,0,0,0,3.089-5.906,5.48,5.48,0,0,0-.578-2.687" transform="translate(-4.33 -3.997)" fill="#fff" fill-rule="evenodd"/>
  </g>
</svg>
